<?xml version="1.0" encoding="iso-8859-1"?>
<!-- Generator: Adobe Illustrator 19.0.0, SVG Export Plug-In . SVG Version: 6.00 Build 0)  -->
<svg version="1.1" id="Layer_1" xmlns="http://www.w3.org/2000/svg" xmlns:xlink="http://www.w3.org/1999/xlink" x="0px" y="0px"
	 viewBox="0 0 512.001 512.001" style="enable-background:new 0 0 512.001 512.001;" xml:space="preserve">
<g>
	<g>
		<path d="M498.542,384.727c-10.255-12.57-24.772-20.223-40.872-21.549c-20.229-1.666-40.408-5.173-59.974-10.422
			c-20.145-5.415-39.826-12.71-58.497-21.685c-34.274-16.466-65.413-38.576-92.554-65.718
			c-20.417-20.417-38.113-43.271-52.597-67.926c-2.662-4.53-8.489-6.043-13.019-3.384c-4.529,2.661-6.044,8.489-3.384,13.019
			c3.565,6.068,7.321,12.029,11.248,17.882l-138.02,74.937c-18.802-39.802-29.526-82.368-31.84-126.568
			c-0.207-3.94,2.307-7.501,6.113-8.657l118.42-35.972c5.368,17.982,12.142,35.555,20.216,52.355
			c1.637,3.406,5.037,5.394,8.579,5.394c1.381,0,2.785-0.303,4.114-0.941c4.734-2.275,6.728-7.958,4.453-12.693
			c-8.974-18.673-16.27-38.354-21.682-58.491c-5.249-19.569-8.757-39.749-10.423-59.978c-1.327-16.102-8.98-30.618-21.549-40.872
			C114.585,3.106,98.641-1.517,82.385,0.441C57.917,3.388,38.113,20.619,31.931,44.337c-8.668,33.251-12.485,67.471-11.377,101.834
			l-0.935,0.284C7.424,150.159-0.627,161.613,0.038,174.31c2.47,47.161,13.996,92.572,34.232,134.974
			c-5.446,4.023-9.424,9.659-11.338,16.281c-2.311,7.995-1.348,16.384,2.709,23.625c15.955,28.476,35.856,54.725,59.151,78.02
			c23.293,23.294,49.542,43.195,78.02,59.151c4.659,2.611,9.795,3.939,14.995,3.939c2.88,0,5.78-0.407,8.629-1.231
			c6.622-1.914,12.26-5.893,16.282-11.339c42.416,20.239,87.821,31.763,134.973,34.232c0.49,0.025,0.977,0.038,1.462,0.038
			c12.104,0,22.83-7.896,26.392-19.619l0.289-0.952c3.862,0.124,7.722,0.208,11.58,0.208c30.462,0,60.74-3.876,90.249-11.568
			c23.719-6.182,40.95-25.988,43.897-50.455C513.517,413.355,508.895,397.414,498.542,384.727z M50.337,49.136
			c4.198-16.101,17.67-27.801,34.321-29.808c11.08-1.333,21.942,1.815,30.587,8.868c8.527,6.957,13.718,16.792,14.616,27.695
			c1.508,18.301,4.453,36.562,8.749,54.418l-99.17,30.126C38.912,109.62,42.562,78.965,50.337,49.136z M347.34,486.85
			c-1.154,3.807-4.706,6.322-8.655,6.115c-44.191-2.315-86.752-13.036-126.568-31.84l40.084-73.826
			c2.506-4.616,0.795-10.39-3.821-12.898c-4.619-2.506-10.39-0.794-12.898,3.821l-47.108,86.762c-1.546,2.847-4.11,4.91-7.222,5.81
			c-3.065,0.885-6.278,0.521-9.043-1.03c-26.955-15.103-51.808-33.947-73.868-56.006c-22.061-22.061-40.904-46.914-56.006-73.868
			c-1.55-2.766-1.915-5.978-1.03-9.045c0.899-3.112,2.963-5.676,5.81-7.222l152.974-83.056
			c10.123,13.466,21.219,26.252,33.205,38.237c12.021,12.021,24.797,23.096,38.24,33.202L254.1,343.928
			c-2.506,4.616-0.795,10.39,3.821,12.898c1.442,0.782,2.997,1.154,4.53,1.154c3.375,0,6.644-1.801,8.368-4.975l16.234-29.9
			c14.005,9.391,28.656,17.786,43.905,25.111c16.797,8.073,34.369,14.845,52.355,20.215L347.34,486.85z M492.672,427.341
			c-2.006,16.653-13.707,30.125-29.809,34.321c-29.827,7.775-60.485,11.423-91.297,10.895l30.125-99.17
			c17.854,4.297,36.114,7.241,54.417,8.749c10.903,0.898,20.739,6.089,27.695,14.616
			C490.857,405.397,494.007,416.26,492.672,427.341z"/>
	</g>
</g>
<g>
</g>
<g>
</g>
<g>
</g>
<g>
</g>
<g>
</g>
<g>
</g>
<g>
</g>
<g>
</g>
<g>
</g>
<g>
</g>
<g>
</g>
<g>
</g>
<g>
</g>
<g>
</g>
<g>
</g>
</svg>
