<?xml version="1.0" encoding="iso-8859-1"?>
<!-- Generator: Adobe Illustrator 19.0.0, SVG Export Plug-In . SVG Version: 6.00 Build 0)  -->
<svg version="1.1" id="Layer_1" xmlns="http://www.w3.org/2000/svg" xmlns:xlink="http://www.w3.org/1999/xlink" x="0px" y="0px"
	 viewBox="0 0 512 512" style="enable-background:new 0 0 512 512;" xml:space="preserve">
<g>
	<g>
		<path d="M502.9,12.143H9.1c-5.027,0-9.1,4.074-9.1,9.1v469.515c0,5.025,4.073,9.1,9.1,9.1H502.9c5.027,0,9.1-4.074,9.1-9.1V21.243
			C512,16.217,507.927,12.143,502.9,12.143z M246.901,481.658H18.199V30.342h228.702V481.658z M493.801,481.659H265.1V30.342
			h228.701V481.659z"/>
	</g>
</g>
<g>
	<g>
		<path d="M187.192,106.25H136.28c-5.027,0-9.1,4.074-9.1,9.1s4.074,9.1,9.1,9.1h50.912c5.027,0,9.1-4.074,9.1-9.1
			S192.219,106.25,187.192,106.25z"/>
	</g>
</g>
<g>
	<g>
		<path d="M102.55,106.25H77.908c-5.027,0-9.1,4.074-9.1,9.1s4.073,9.1,9.1,9.1h24.642c5.027,0,9.1-4.074,9.1-9.1
			S107.577,106.25,102.55,106.25z"/>
	</g>
</g>
<g>
	<g>
		<path d="M205.406,202.379H59.695c-5.027,0-9.1,4.074-9.1,9.1c0,5.025,4.073,9.1,9.1,9.1h145.711c5.027,0,9.1-4.074,9.1-9.1
			C214.505,206.453,210.431,202.379,205.406,202.379z"/>
	</g>
</g>
<g>
	<g>
		<path d="M205.406,346.572H90.026c-5.027,0-9.1,4.074-9.1,9.1s4.073,9.1,9.1,9.1h115.379c5.027,0,9.1-4.074,9.1-9.1
			S210.431,346.572,205.406,346.572z"/>
	</g>
</g>
<g>
	<g>
		<path d="M205.406,298.508H59.695c-5.027,0-9.1,4.074-9.1,9.1s4.073,9.1,9.1,9.1h145.711c5.027,0,9.1-4.074,9.1-9.1
			S210.431,298.508,205.406,298.508z"/>
	</g>
</g>
<g>
	<g>
		<path d="M205.406,250.443h-16.053c-5.027,0-9.1,4.074-9.1,9.1c0,5.025,4.073,9.1,9.1,9.1h16.053c5.027,0,9.1-4.074,9.1-9.1
			C214.505,254.517,210.431,250.443,205.406,250.443z"/>
	</g>
</g>
<g>
	<g>
		<path d="M155.621,250.443H90.026c-5.027,0-9.1,4.074-9.1,9.1c0,5.025,4.073,9.1,9.1,9.1h65.595c5.027,0,9.1-4.074,9.1-9.1
			C164.721,254.517,160.648,250.443,155.621,250.443z"/>
	</g>
</g>
<g>
	<g>
		<path d="M205.406,394.638H59.695c-5.027,0-9.1,4.074-9.1,9.1c0,5.025,4.073,9.1,9.1,9.1h145.711c5.027,0,9.1-4.074,9.1-9.1
			C214.505,398.712,210.431,394.638,205.406,394.638z"/>
	</g>
</g>
<g>
	<g>
		<path d="M456.542,202.379h-82.809c-5.027,0-9.1,4.074-9.1,9.1c0,5.025,4.073,9.1,9.1,9.1h82.809c5.027,0,9.1-4.074,9.1-9.1
			C465.642,206.453,461.569,202.379,456.542,202.379z"/>
	</g>
</g>
<g>
	<g>
		<path d="M343.402,202.379H310.83c-5.027,0-9.1,4.074-9.1,9.1c0,5.025,4.074,9.1,9.1,9.1h32.572c5.027,0,9.1-4.074,9.1-9.1
			C352.501,206.453,348.428,202.379,343.402,202.379z"/>
	</g>
</g>
<g>
	<g>
		<path d="M456.542,346.572h-115.38c-5.027,0-9.1,4.074-9.1,9.1s4.073,9.1,9.1,9.1h115.38c5.027,0,9.1-4.074,9.1-9.1
			S461.569,346.572,456.542,346.572z"/>
	</g>
</g>
<g>
	<g>
		<path d="M456.542,298.508H310.83c-5.027,0-9.1,4.074-9.1,9.1s4.074,9.1,9.1,9.1h145.712c5.027,0,9.1-4.074,9.1-9.1
			S461.569,298.508,456.542,298.508z"/>
	</g>
</g>
<g>
	<g>
		<path d="M456.542,250.443h-115.38c-5.027,0-9.1,4.074-9.1,9.1c0,5.025,4.073,9.1,9.1,9.1h115.38c5.027,0,9.1-4.074,9.1-9.1
			C465.642,254.517,461.569,250.443,456.542,250.443z"/>
	</g>
</g>
<g>
	<g>
		<path d="M456.542,394.638h-80.17c-5.027,0-9.1,4.074-9.1,9.1c0,5.025,4.073,9.1,9.1,9.1h80.17c5.027,0,9.1-4.074,9.1-9.1
			C465.642,398.712,461.569,394.638,456.542,394.638z"/>
	</g>
</g>
<g>
	<g>
		<path d="M346.04,394.638H310.83c-5.027,0-9.1,4.074-9.1,9.1c0,5.025,4.074,9.1,9.1,9.1h35.211c5.027,0,9.1-4.074,9.1-9.1
			C355.14,398.712,351.067,394.638,346.04,394.638z"/>
	</g>
</g>
<g>
	<g>
		<path d="M456.542,154.315h-115.38c-5.027,0-9.1,4.074-9.1,9.1c0,5.025,4.073,9.1,9.1,9.1h115.38c5.027,0,9.1-4.074,9.1-9.1
			C465.642,158.389,461.569,154.315,456.542,154.315z"/>
	</g>
</g>
<g>
	<g>
		<path d="M456.542,106.25H310.83c-5.027,0-9.1,4.074-9.1,9.1s4.074,9.1,9.1,9.1h145.712c5.027,0,9.1-4.074,9.1-9.1
			S461.569,106.25,456.542,106.25z"/>
	</g>
</g>
<g>
</g>
<g>
</g>
<g>
</g>
<g>
</g>
<g>
</g>
<g>
</g>
<g>
</g>
<g>
</g>
<g>
</g>
<g>
</g>
<g>
</g>
<g>
</g>
<g>
</g>
<g>
</g>
<g>
</g>
</svg>
