<?xml version="1.0" encoding="iso-8859-1"?>
<!-- Generator: Adobe Illustrator 19.0.0, SVG Export Plug-In . SVG Version: 6.00 Build 0)  -->
<svg version="1.1" id="Layer_1" xmlns="http://www.w3.org/2000/svg" xmlns:xlink="http://www.w3.org/1999/xlink" x="0px" y="0px"
	 viewBox="0 0 512.002 512.002" style="enable-background:new 0 0 512.002 512.002;" xml:space="preserve">
<g>
	<g>
		<path d="M450.57,281.912c-7.691-13.98-21.809-22.326-37.764-22.326h-30.92l11.829-64.167c0.484-2.633-0.226-5.346-1.938-7.405
			c-1.713-2.057-4.251-3.247-6.93-3.247H69.088c-2.677,0-5.217,1.19-6.93,3.248c-1.713,2.057-2.422,4.771-1.937,7.403l6.182,33.535
			c0.903,4.897,5.604,8.134,10.503,7.233c4.897-0.902,8.136-5.605,7.233-10.502l-4.219-22.883h294.097l-47.182,255.952h-11.573
			c-4.981,0-9.017,4.037-9.017,9.017c0,4.98,4.036,9.017,9.017,9.017h63.038c-3.682,10.016-13.32,17.18-24.598,17.18h-253.47
			c-11.277,0-20.914-7.163-24.597-17.18h209.235c4.981,0,9.017-4.037,9.017-9.017c0-4.98-4.036-9.017-9.017-9.017H127.102
			L89.908,256.988c-0.902-4.897-5.602-8.131-10.502-7.233c-4.898,0.903-8.136,5.605-7.234,10.503l36.591,198.496H65.021
			c-4.98,0-9.017,4.037-9.017,9.017c0,24.389,19.841,44.23,44.229,44.23h253.468c24.389,0,44.23-19.842,44.23-44.23
			c0-4.98-4.036-9.017-9.017-9.017h-43.744l8.235-44.675c26.202-1.797,49.84-15.788,64.046-38.204l31.76-50.115
			C457.753,312.283,458.261,295.892,450.57,281.912z M433.98,316.107l-31.76,50.115c-10.255,16.182-26.802,26.729-45.404,29.36
			l21.745-117.963h34.245c9.28,0,17.49,4.855,21.964,12.984C439.242,298.735,438.948,308.269,433.98,316.107z"/>
	</g>
</g>
<g>
	<g>
		<path d="M233.97,67.696c-5.01-6.176-8.628-10.639-8.628-20.566c0-9.917,3.618-14.379,8.625-20.555
			c3.098-3.82,6.609-8.15,9.138-13.954c1.99-4.565-0.099-9.879-4.664-11.869c-4.565-1.99-9.879,0.099-11.869,4.664
			c-1.55,3.556-3.896,6.451-6.614,9.802c-5.636,6.951-12.651,15.604-12.651,31.912c0,16.32,7.016,24.973,12.655,31.926
			c5.009,6.174,8.625,10.635,8.625,20.552c0,9.931-3.619,14.394-8.627,20.573c-4.659,5.746-9.938,12.258-11.895,23.087
			c-0.886,4.9,2.368,9.591,7.269,10.478c0.542,0.099,1.082,0.145,1.615,0.145c4.278,0,8.074-3.056,8.863-7.414
			c1.135-6.276,4.233-10.099,8.157-14.939c5.637-6.954,12.652-15.608,12.652-31.93C246.622,83.297,239.607,74.647,233.97,67.696z"/>
	</g>
</g>
<g>
	<g>
		<path d="M319.605,67.698c-5.008-6.176-8.628-10.639-8.628-20.566c0-9.916,3.619-14.378,8.626-20.555
			c3.097-3.82,6.609-8.15,9.138-13.954c1.99-4.565-0.097-9.879-4.662-11.869c-4.572-1.99-9.88,0.1-11.869,4.664
			c-1.551,3.556-3.896,6.451-6.615,9.802c-5.636,6.951-12.651,15.604-12.651,31.912c0,16.32,7.017,24.973,12.655,31.926
			c5.009,6.172,8.625,10.634,8.625,20.551c0,9.931-3.619,14.394-8.628,20.573c-4.657,5.746-9.937,12.258-11.895,23.088
			c-0.885,4.9,2.37,9.591,7.27,10.476c0.542,0.099,1.081,0.145,1.615,0.145c4.278,0,8.075-3.056,8.863-7.414
			c1.134-6.276,4.233-10.098,8.156-14.938c5.637-6.954,12.652-15.608,12.652-31.93C332.256,83.297,325.241,74.648,319.605,67.698z"
			/>
	</g>
</g>
<g>
	<g>
		<path d="M148.342,67.699c-5.006-6.177-8.624-10.64-8.624-20.568c0-9.92,3.616-14.382,8.621-20.56
			c3.095-3.82,6.602-8.148,9.131-13.95c1.99-4.565-0.099-9.879-4.664-11.869c-4.565-1.99-9.879,0.099-11.869,4.664
			c-1.55,3.556-3.895,6.451-6.61,9.802c-5.634,6.951-12.644,15.604-12.644,31.912c0,16.319,7.013,24.972,12.648,31.923
			c5.005,6.175,8.62,10.635,8.62,20.555c0,9.929-3.617,14.393-8.624,20.57c-4.657,5.747-9.937,12.262-11.888,23.095
			c-0.882,4.9,2.374,9.59,7.276,10.473c0.541,0.097,1.078,0.144,1.609,0.144c4.28,0,8.078-3.06,8.864-7.42
			c1.13-6.276,4.228-10.098,8.15-14.938c5.635-6.953,12.646-15.605,12.646-31.924C160.986,83.299,153.975,74.649,148.342,67.699z"/>
	</g>
</g>
<g>
	<g>
		<path d="M274.046,265.281c-12.28-18.815-28.999-29.177-47.079-29.177c-18.081,0-34.8,10.362-47.08,29.177
			c-11.504,17.627-17.839,40.887-17.839,65.496c0,24.609,6.336,47.868,17.839,65.496c12.28,18.815,28.999,29.177,47.08,29.177
			c18.081,0,34.799-10.362,47.079-29.177c11.503-17.627,17.839-40.887,17.839-65.496
			C291.885,306.168,285.549,282.909,274.046,265.281z M235.984,405.917v-77.456c0-4.98-4.037-9.017-9.017-9.017
			c-4.98,0-9.017,4.037-9.017,9.017v77.456c-21.276-7.096-37.868-38.621-37.868-75.139c0-41.543,21.471-76.639,46.885-76.639
			s46.884,35.096,46.884,76.639C273.851,367.295,257.259,398.822,235.984,405.917z"/>
	</g>
</g>
<g>
	<g>
		<path d="M226.967,266.161c-4.98,0-9.017,4.037-9.017,9.017v24.428c0,4.98,4.037,9.017,9.017,9.017c4.98,0,9.017-4.037,9.017-9.017
			v-24.428C235.984,270.198,231.947,266.161,226.967,266.161z"/>
	</g>
</g>
<g>
</g>
<g>
</g>
<g>
</g>
<g>
</g>
<g>
</g>
<g>
</g>
<g>
</g>
<g>
</g>
<g>
</g>
<g>
</g>
<g>
</g>
<g>
</g>
<g>
</g>
<g>
</g>
<g>
</g>
</svg>
